<?xml version="1.0" encoding="utf-8"?>
<!-- Generator: Adobe Illustrator 15.0.2, SVG Export Plug-In . SVG Version: 6.00 Build 0)  -->
<!DOCTYPE svg PUBLIC "-//W3C//DTD SVG 1.1//EN" "http://www.w3.org/Graphics/SVG/1.1/DTD/svg11.dtd">
<svg version="1.1"
	 id="svg12385" inkscape:version="0.46+pre4" sodipodi:version="0.32" sodipodi:docname="camera white.svg" inkscape:output_extension="org.inkscape.output.svg.inkscape" xmlns:inkscape="http://www.inkscape.org/namespaces/inkscape" xmlns:sodipodi="http://sodipodi.sourceforge.net/DTD/sodipodi-0.dtd" xmlns:rdf="http://www.w3.org/1999/02/22-rdf-syntax-ns#" xmlns:svg="http://www.w3.org/2000/svg" xmlns:cc="http://creativecommons.org/ns#" xmlns:dc="http://purl.org/dc/elements/1.1/"
	 xmlns="http://www.w3.org/2000/svg" xmlns:xlink="http://www.w3.org/1999/xlink" x="0px" y="0px" width="421.135px"
	 height="418.479px" viewBox="0 39.796 421.135 418.479" enable-background="new 0 39.796 421.135 418.479" xml:space="preserve">
<defs>
	
	
		<inkscape:perspective  inkscape:vp_z="744.09448 : 526.18109 : 1" id="perspective12393" sodipodi:type="inkscape:persp3d" inkscape:vp_x="0 : 526.18109 : 1" inkscape:vp_y="0 : 1000 : 0" inkscape:persp3d-origin="372.04724 : 350.78739 : 1">
		</inkscape:perspective>
</defs>
<sodipodi:namedview  borderopacity="1.0" bordercolor="#666666" id="base" pagecolor="#ffffff" objecttolerance="10" gridtolerance="10000" guidetolerance="10" inkscape:cx="282.59269" inkscape:pageopacity="0.0" inkscape:pageshadow="2" inkscape:zoom="0.7" inkscape:cy="520" inkscape:document-units="px" inkscape:current-layer="layer1" showgrid="false" inkscape:window-width="1280" inkscape:window-height="938" inkscape:window-x="-4" inkscape:window-y="-4">
	</sodipodi:namedview>
<g id="layer1" inkscape:label="Layer 1" inkscape:groupmode="layer">
	<path id="path2776" fill="#00ACEE" d="M341.153,425.544c22.475,0,40.744-18.234,40.744-40.708V125.317
		c0-22.474-18.269-40.708-40.744-40.708H81.704c-22.508,0-40.743,18.234-40.743,40.708v259.519
		c0,22.474,18.234,40.708,40.743,40.708H341.153z"/>
	<path id="path2778" fill="#FFFFFF" d="M81.704,91.503c-18.648,0-33.883,15.166-33.883,33.814v259.519
		c0,18.647,15.235,33.78,33.883,33.78h259.45c18.648,0,33.781-15.133,33.781-33.78V125.317c0-18.648-15.132-33.814-33.781-33.814
		H81.704z"/>
	<path id="path2780" fill="#00ACEE" d="M235.471,205.803c21.647,0,40.433,11.789,50.808,29.161l61.148,0.069v-32.78
		c0-12.202-9.927-22.095-22.095-22.095H97.456c-12.202,0-22.026,9.893-22.026,22.095l0.069,32.504l109.13,0.069
		C195.073,217.522,213.79,205.803,235.471,205.803"/>
	<path id="path2782" fill="#00ACEE" d="M132.58,169.748h-20.268l-2.344,7.307h24.301L132.58,169.748z"/>
	<path id="path2784" fill="#00ACEE" d="M315.37,165.853h-26.989l-4.792,11.271h36.158L315.37,165.853z"/>
	<path id="path2786" fill="#00ACEE" d="M222.717,173.229h-23.232v-11.237h23.232V173.229z M244.019,157.477h-65.595l-13.512,19.785
		h91.481L244.019,157.477z"/>
	<path id="path2788" fill="#00ACEE" d="M289.45,240.823c3.378,7.445,5.377,15.649,5.377,24.37c0,32.78-26.576,59.39-59.356,59.39
		c-32.814,0-59.39-26.61-59.39-59.39c0-8.721,1.964-16.925,5.377-24.404H75.43v89.482c0,12.133,9.824,22.026,22.026,22.026h227.876
		c12.168,0,22.095-9.893,22.095-22.026l0.069-89.448H289.45z"/>
	<path id="path2790" fill="#00ACEE" d="M267.837,245.684c-0.931-1.654-2.103-3.206-3.378-4.688
		c-6.928-8.341-17.304-13.822-28.989-13.822c-11.719,0-22.095,5.446-29.023,13.753c-1.275,1.517-2.447,3.068-3.447,4.757
		c-3.481,5.722-5.584,12.34-5.584,19.51c0,20.957,17.028,37.985,38.054,37.985c20.923,0,37.951-17.028,37.951-37.985
		C273.421,258.023,271.354,251.405,267.837,245.684"/>
	<path fill="#00ACEE" stroke="#FFFFFF" stroke-width="7" stroke-miterlimit="10" d="M371.542,235.445
		c-8.657,3.759-17.948,6.322-27.665,7.5c-0.071-0.175-0.146-0.347-0.221-0.521c10.293-6.022,18.245-15.61,22.154-27.077
		c-2.98,1.83-17.358,9.938-31.391,12.555c-9.153-10.042-22.329-16.344-36.984-16.344c-30.97,0-50.043,25.406-50.043,50.044
		c0,1.919,0.911,9.861,1.068,10.312c-41.608-0.904-78.5-20.925-102.259-51.628c-17.017,30.979,0.812,57.837,13.03,67.418
		c-7.1-0.121-13.853-1.649-19.995-4.331c1.295,23.83,18.531,43.405,41.227,48.278c-9.094,2.553-20.005,0.599-24.208-0.488
		c6.706,19.934,25.078,34.503,47.007,35.578c-33.562,24.664-69.758,22.146-70.336,22.136c21.273,12.745,46.161,20.249,72.761,20.077
		c97.481-0.628,147.531-87.145,141.584-149.229C357.942,254.751,366.566,246.121,371.542,235.445"/>
</g>
</svg>
